<svg xmlns="http://www.w3.org/2000/svg" width="1000" height="750" viewBox="0 0 1000 750" role="img" aria-labelledby="title desc">
  <title id="title">Hands-on bonsai workshop placeholder</title>
  <desc id="desc">A clean placeholder illustration for a hands-on bonsai styling workshop.</desc>
  <rect width="1000" height="750" fill="#faf7ee"/>
  <rect x="90" y="110" width="820" height="520" rx="34" fill="#fffdf8" stroke="#d8ccb6" stroke-width="3"/>
  <rect x="155" y="500" width="690" height="42" rx="8" fill="#caa878"/>
  <path d="M500 493c-38-38-42-88-8-150 28-52 8-95-36-124" fill="none" stroke="#6e4d2e" stroke-width="24" stroke-linecap="round"/>
  <path d="M491 365c60-30 106-56 156-112" fill="none" stroke="#6e4d2e" stroke-width="18" stroke-linecap="round"/>
  <path d="M475 386c-56-26-100-56-144-108" fill="none" stroke="#6e4d2e" stroke-width="18" stroke-linecap="round"/>
  <ellipse cx="340" cy="268" rx="125" ry="68" fill="#2d5a3d"/>
  <ellipse cx="623" cy="247" rx="148" ry="76" fill="#1a3c28"/>
  <ellipse cx="475" cy="197" rx="132" ry="68" fill="#7a9b7a"/>
  <ellipse cx="530" cy="335" rx="140" ry="72" fill="#2d5a3d"/>
  <rect x="395" y="465" width="210" height="74" rx="14" fill="#1a3c28"/>
  <path d="M415 539h170l-25 68H440z" fill="#0f2418"/>
  <circle cx="200" cy="570" r="36" fill="#e8f0e8"/>
  <circle cx="800" cy="570" r="36" fill="#e8f0e8"/>
  <path d="M197 551v38M181 570h38M797 551v38M781 570h38" stroke="#7a9b7a" stroke-width="6" stroke-linecap="round"/>
  <text x="500" y="690" text-anchor="middle" fill="#4a6050" font-family="Arial, sans-serif" font-size="22" letter-spacing="4">REPLACE WITH WORKSHOP DETAIL PHOTO</text>
</svg>
