<svg xmlns="http://www.w3.org/2000/svg" viewBox="0 0 400 500" width="400" height="500">

  <!-- ── Pot ── -->
  <rect x="128" y="278" width="144" height="36" rx="5" fill="#F4EDD8" stroke="#CCC0A0" stroke-width="1"/>
  <rect x="118" y="310" width="164" height="9" rx="3" fill="#E8DFC0" stroke="#CCC0A0" stroke-width="0.8"/>
  <!-- feet -->
  <rect x="138" y="319" width="28" height="7" rx="2.5" fill="#DDD4B8"/>
  <rect x="234" y="319" width="28" height="7" rx="2.5" fill="#DDD4B8"/>
  <!-- red stamp -->
  <rect x="190" y="288" width="14" height="14" rx="2" fill="#C0392B"/>
  <text x="197" y="300" font-family="serif" font-size="9" fill="white" text-anchor="middle">盆</text>
  <!-- soil -->
  <ellipse cx="200" cy="278" rx="58" ry="8" fill="#5A3010" opacity="0.85"/>
  <ellipse cx="200" cy="276" rx="46" ry="5.5" fill="#3A1C08"/>

  <!-- ── Nebari / surface roots ── -->
  <path d="M190 272 Q178 262 160 256 Q148 252 140 250" stroke="#5A3010" stroke-width="5" fill="none" stroke-linecap="round"/>
  <path d="M210 272 Q222 262 240 256 Q252 252 260 250" stroke="#5A3010" stroke-width="5" fill="none" stroke-linecap="round"/>
  <path d="M198 272 Q194 260 192 248" stroke="#5A3010" stroke-width="3.5" fill="none" stroke-linecap="round"/>
  <path d="M202 272 Q206 260 208 248" stroke="#5A3010" stroke-width="3.5" fill="none" stroke-linecap="round"/>

  <!-- ── Trunk (S-curve, gnarled) ── -->
  <path d="M200 272 Q188 245 184 215 Q180 182 192 155 Q204 128 198 98"
        stroke="#4A2808" stroke-width="24" fill="none" stroke-linecap="round"/>
  <path d="M200 272 Q190 245 188 215 Q185 182 196 155 Q207 128 202 98"
        stroke="#6A3C18" stroke-width="16" fill="none" stroke-linecap="round"/>
  <path d="M202 272 Q194 245 193 215 Q191 182 201 155 Q212 128 207 98"
        stroke="#8A5428" stroke-width="8" fill="none" stroke-linecap="round" opacity="0.45"/>

  <!-- ── Branches ── -->
  <!-- left primary -->
  <path d="M187 215 Q168 200 148 185 Q132 173 118 162" stroke="#4A2808" stroke-width="11" fill="none" stroke-linecap="round"/>
  <!-- left secondary -->
  <path d="M184 188 Q166 174 150 164 Q138 156 128 148" stroke="#4A2808" stroke-width="7.5" fill="none" stroke-linecap="round"/>
  <!-- right primary -->
  <path d="M194 208 Q216 192 238 178 Q254 168 270 158" stroke="#4A2808" stroke-width="11" fill="none" stroke-linecap="round"/>
  <!-- right secondary -->
  <path d="M197 178 Q218 165 236 154 Q250 145 262 136" stroke="#4A2808" stroke-width="7.5" fill="none" stroke-linecap="round"/>
  <!-- upper left -->
  <path d="M195 150 Q177 136 162 122 Q151 112 142 100" stroke="#4A2808" stroke-width="6" fill="none" stroke-linecap="round"/>
  <!-- upper right -->
  <path d="M200 138 Q218 124 232 112 Q244 102 252 90" stroke="#4A2808" stroke-width="5.5" fill="none" stroke-linecap="round"/>

  <!-- ── Blossom canopy: back (dark) ── -->
  <circle cx="148" cy="168" r="30" fill="#901848" opacity="0.50"/>
  <circle cx="254" cy="160" r="28" fill="#901848" opacity="0.50"/>
  <circle cx="200" cy="112" r="34" fill="#901848" opacity="0.55"/>
  <circle cx="170" cy="138" r="26" fill="#901848" opacity="0.45"/>
  <circle cx="232" cy="130" r="26" fill="#901848" opacity="0.45"/>
  <circle cx="124" cy="152" r="22" fill="#901848" opacity="0.40"/>
  <circle cx="276" cy="145" r="22" fill="#901848" opacity="0.40"/>
  <circle cx="160" cy="108" r="22" fill="#901848" opacity="0.40"/>
  <circle cx="242" cy="104" r="22" fill="#901848" opacity="0.40"/>

  <!-- ── Blossom canopy: mid ── -->
  <circle cx="145" cy="160" r="30" fill="#C83468" opacity="0.82"/>
  <circle cx="255" cy="153" r="28" fill="#C83468" opacity="0.80"/>
  <circle cx="198" cy="105" r="34" fill="#C83468" opacity="0.86"/>
  <circle cx="168" cy="130" r="26" fill="#D03C74" opacity="0.78"/>
  <circle cx="232" cy="122" r="26" fill="#C83468" opacity="0.78"/>
  <circle cx="126" cy="145" r="22" fill="#D03C74" opacity="0.72"/>
  <circle cx="274" cy="138" r="22" fill="#C83468" opacity="0.72"/>
  <circle cx="162" cy="100" r="24" fill="#D44070" opacity="0.75"/>
  <circle cx="238" cy="97" r="24" fill="#C83468" opacity="0.75"/>

  <!-- ── Blossom canopy: front (bright) ── -->
  <circle cx="180" cy="136" r="28" fill="#E060A0" opacity="0.92"/>
  <circle cx="220" cy="130" r="27" fill="#E060A0" opacity="0.92"/>
  <circle cx="200" cy="148" r="26" fill="#D84898" opacity="0.90"/>
  <circle cx="155" cy="148" r="24" fill="#E060A0" opacity="0.87"/>
  <circle cx="246" cy="142" r="24" fill="#E060A0" opacity="0.87"/>
  <circle cx="200" cy="92" r="28" fill="#D84898" opacity="0.92"/>
  <circle cx="172" cy="112" r="22" fill="#E060A0" opacity="0.90"/>
  <circle cx="228" cy="110" r="22" fill="#E060A0" opacity="0.90"/>
  <circle cx="138" cy="135" r="18" fill="#E060A0" opacity="0.82"/>
  <circle cx="262" cy="128" r="18" fill="#E060A0" opacity="0.82"/>

  <!-- ── Blossom highlights ── -->
  <circle cx="198" cy="94" r="10" fill="white" opacity="0.24"/>
  <circle cx="178" cy="132" r="6" fill="white" opacity="0.20"/>
  <circle cx="220" cy="126" r="6" fill="white" opacity="0.20"/>
  <circle cx="145" cy="156" r="5" fill="white" opacity="0.18"/>
  <circle cx="255" cy="149" r="5" fill="white" opacity="0.18"/>

  <!-- ── BONSAI ── -->
  <text x="200" y="374"
    font-family="Georgia,'Times New Roman',serif"
    font-size="76" font-weight="bold"
    fill="#253020" text-anchor="middle" letter-spacing="5">BONSAI</text>

  <!-- ── FLORIDA (sub-heading) ── -->
  <text x="200" y="408"
    font-family="Georgia,'Times New Roman',serif"
    font-size="28"
    fill="#253020" text-anchor="middle" letter-spacing="16">FLORIDA</text>

  <!-- ── Pink divider line + flower ── -->
  <line x1="55" y1="432" x2="166" y2="432" stroke="#E090B8" stroke-width="1.5"/>
  <line x1="234" y1="432" x2="345" y2="432" stroke="#E090B8" stroke-width="1.5"/>
  <!-- flower petals -->
  <g transform="translate(200,432)">
    <ellipse cx="0" cy="-11" rx="5" ry="9" fill="#EAA0C8" transform="rotate(0)"/>
    <ellipse cx="0" cy="-11" rx="5" ry="9" fill="#EAA0C8" transform="rotate(60)"/>
    <ellipse cx="0" cy="-11" rx="5" ry="9" fill="#EAA0C8" transform="rotate(120)"/>
    <ellipse cx="0" cy="-11" rx="5" ry="9" fill="#EAA0C8" transform="rotate(180)"/>
    <ellipse cx="0" cy="-11" rx="5" ry="9" fill="#EAA0C8" transform="rotate(240)"/>
    <ellipse cx="0" cy="-11" rx="5" ry="9" fill="#EAA0C8" transform="rotate(300)"/>
    <circle cx="0" cy="0" r="6" fill="#F5C840"/>
    <!-- leaves -->
    <ellipse cx="-16" cy="0" rx="8" ry="3.5" fill="#4A7038" transform="rotate(-20,-16,0)"/>
    <ellipse cx="16" cy="0" rx="8" ry="3.5" fill="#4A7038" transform="rotate(20,16,0)"/>
    <!-- gold dots -->
    <circle cx="-28" cy="0" r="2.5" fill="#E8B830"/>
    <circle cx="28" cy="0" r="2.5" fill="#E8B830"/>
  </g>

  <!-- ── FLORIDA (bottom) ── -->
  <text x="200" y="472"
    font-family="Georgia,'Times New Roman',serif"
    font-size="26"
    fill="#253020" text-anchor="middle" letter-spacing="18">FLORIDA</text>

</svg>
